<svg width="58" height="10" viewBox="0 0 58 10" fill="none" xmlns="http://www.w3.org/2000/svg">
<path d="M3.85227 9H0.758523V0.272727H3.87784C4.75568 0.272727 5.51136 0.447443 6.14489 0.796875C6.77841 1.14347 7.26563 1.64205 7.60653 2.29261C7.95028 2.94318 8.12216 3.72159 8.12216 4.62784C8.12216 5.53693 7.95028 6.31818 7.60653 6.97159C7.26563 7.625 6.77557 8.12642 6.13636 8.47585C5.5 8.82528 4.73864 9 3.85227 9ZM2.60369 7.41903H3.77557C4.32102 7.41903 4.77983 7.32244 5.15199 7.12926C5.52699 6.93324 5.80824 6.63068 5.99574 6.22159C6.18608 5.80966 6.28125 5.27841 6.28125 4.62784C6.28125 3.98295 6.18608 3.45597 5.99574 3.04688C5.80824 2.63778 5.52841 2.33665 5.15625 2.14347C4.78409 1.95028 4.32528 1.85369 3.77983 1.85369H2.60369V7.41903ZM11.3342 0.272727V9H9.48899V0.272727H11.3342ZM20.8722 4.63636C20.8722 5.58807 20.6918 6.39773 20.331 7.06534C19.973 7.73295 19.4844 8.2429 18.8651 8.59517C18.2486 8.9446 17.5554 9.11932 16.7855 9.11932C16.0099 9.11932 15.3139 8.94318 14.6974 8.59091C14.081 8.23864 13.5938 7.72869 13.2358 7.06108C12.8778 6.39347 12.6989 5.58523 12.6989 4.63636C12.6989 3.68466 12.8778 2.875 13.2358 2.20739C13.5938 1.53977 14.081 1.03125 14.6974 0.681818C15.3139 0.329545 16.0099 0.153409 16.7855 0.153409C17.5554 0.153409 18.2486 0.329545 18.8651 0.681818C19.4844 1.03125 19.973 1.53977 20.331 2.20739C20.6918 2.875 20.8722 3.68466 20.8722 4.63636ZM19.0014 4.63636C19.0014 4.01989 18.9091 3.5 18.7244 3.0767C18.5426 2.65341 18.2855 2.33239 17.9531 2.11364C17.6207 1.89489 17.2315 1.78551 16.7855 1.78551C16.3395 1.78551 15.9503 1.89489 15.6179 2.11364C15.2855 2.33239 15.027 2.65341 14.8423 3.0767C14.6605 3.5 14.5696 4.01989 14.5696 4.63636C14.5696 5.25284 14.6605 5.77273 14.8423 6.19602C15.027 6.61932 15.2855 6.94034 15.6179 7.15909C15.9503 7.37784 16.3395 7.48722 16.7855 7.48722C17.2315 7.48722 17.6207 7.37784 17.9531 7.15909C18.2855 6.94034 18.5426 6.61932 18.7244 6.19602C18.9091 5.77273 19.0014 5.25284 19.0014 4.63636ZM32.7166 3.32812H30.8501C30.8161 3.08665 30.7464 2.87216 30.6413 2.68466C30.5362 2.49432 30.4013 2.33239 30.2365 2.19886C30.0717 2.06534 29.8814 1.96307 29.6655 1.89205C29.4524 1.82102 29.2209 1.78551 28.9709 1.78551C28.5192 1.78551 28.1257 1.89773 27.7905 2.12216C27.4553 2.34375 27.1953 2.66761 27.0107 3.09375C26.826 3.51705 26.7337 4.03125 26.7337 4.63636C26.7337 5.25852 26.826 5.78125 27.0107 6.20455C27.1982 6.62784 27.4595 6.94744 27.7947 7.16335C28.13 7.37926 28.5178 7.48722 28.9581 7.48722C29.2053 7.48722 29.4339 7.45455 29.6442 7.3892C29.8572 7.32386 30.0462 7.22869 30.2109 7.10369C30.3757 6.97585 30.5121 6.82102 30.62 6.6392C30.7308 6.45739 30.8075 6.25 30.8501 6.01705L32.7166 6.02557C32.6683 6.42614 32.5476 6.8125 32.3544 7.18466C32.1641 7.55398 31.907 7.88494 31.5831 8.17756C31.2621 8.46733 30.8786 8.69744 30.4325 8.8679C29.9893 9.03551 29.4879 9.11932 28.9283 9.11932C28.1499 9.11932 27.4538 8.94318 26.8402 8.59091C26.2294 8.23864 25.7464 7.72869 25.3913 7.06108C25.0391 6.39347 24.8629 5.58523 24.8629 4.63636C24.8629 3.68466 25.0419 2.875 25.3999 2.20739C25.7578 1.53977 26.2436 1.03125 26.8572 0.681818C27.4709 0.329545 28.1612 0.153409 28.9283 0.153409C29.4339 0.153409 29.9027 0.224432 30.3345 0.366477C30.7692 0.508523 31.1541 0.715909 31.4893 0.988636C31.8246 1.25852 32.0973 1.58949 32.3075 1.98153C32.5206 2.37358 32.657 2.82244 32.7166 3.32812ZM34.0398 9V0.272727H35.8849V3.87358H39.6307V0.272727H41.4716V9H39.6307V5.39489H35.8849V9H34.0398ZM44.4972 9H42.5199L45.5327 0.272727H47.9105L50.919 9H48.9418L46.7557 2.26705H46.6875L44.4972 9ZM44.3736 5.5696H49.044V7.00994H44.3736V5.5696ZM50.5707 1.79403V0.272727H57.7383V1.79403H55.0664V9H53.2425V1.79403H50.5707Z" fill="white"/>
</svg>
